<svg width="26" height="32" viewBox="0 0 26 32" fill="none" xmlns="http://www.w3.org/2000/svg">
<g clip-path="url(#clip0_26_175)">
<path d="M18.9475 1.28003H7.05255C5.52742 1.28172 4.06525 1.87901 2.98682 2.94085C1.90839 4.00269 1.30177 5.44236 1.30005 6.94403V18.656C1.30177 20.1577 1.90839 21.5974 2.98682 22.6592C4.06525 23.7211 5.52742 24.3183 7.05255 24.32H18.9475C20.4727 24.3183 21.9348 23.7211 23.0133 22.6592C24.0917 21.5974 24.6983 20.1577 24.7 18.656V6.94403C24.6983 5.44236 24.0917 4.00269 23.0133 2.94085C21.9348 1.87901 20.4727 1.28172 18.9475 1.28003ZM23.4 18.656C23.4 19.8187 22.9309 20.9338 22.0959 21.756C21.2609 22.5781 20.1284 23.04 18.9475 23.04H7.05255C5.87167 23.04 4.73916 22.5781 3.90416 21.756C3.06915 20.9338 2.60005 19.8187 2.60005 18.656V6.94403C2.60005 5.78132 3.06915 4.66623 3.90416 3.84407C4.73916 3.02191 5.87167 2.56003 7.05255 2.56003H18.9475C20.1284 2.56003 21.2609 3.02191 22.0959 3.84407C22.9309 4.66623 23.4 5.78132 23.4 6.94403V18.656Z" fill="white"/>
<path d="M11.518 12.6784C11.4877 12.5357 11.4126 12.4058 11.3035 12.3072L7.40348 9.10723C7.27074 8.9986 7.09961 8.94633 6.92773 8.96194C6.75586 8.97754 6.59731 9.05973 6.48698 9.19043C6.37665 9.32113 6.32357 9.48963 6.33942 9.65886C6.35527 9.82809 6.43874 9.9842 6.57148 10.0928L9.87348 12.8L6.57148 15.5072C6.43874 15.6159 6.35527 15.772 6.33942 15.9412C6.32357 16.1104 6.37665 16.2789 6.48698 16.4096C6.59731 16.5403 6.75586 16.6225 6.92773 16.6381C7.09961 16.6537 7.27074 16.6015 7.40348 16.4928L11.3035 13.2928C11.3881 13.2159 11.452 13.1195 11.4894 13.0123C11.5269 12.905 11.5367 12.7903 11.518 12.6784Z" fill="white"/>
<path d="M19.0125 15.36H13.1625C12.9901 15.36 12.8247 15.4274 12.7028 15.5474C12.5809 15.6675 12.5125 15.8302 12.5125 16C12.5125 16.1697 12.5809 16.3325 12.7028 16.4525C12.8247 16.5726 12.9901 16.64 13.1625 16.64H19.0125C19.1848 16.64 19.3502 16.5726 19.4721 16.4525C19.594 16.3325 19.6625 16.1697 19.6625 16C19.6625 15.8302 19.594 15.6675 19.4721 15.5474C19.3502 15.4274 19.1848 15.36 19.0125 15.36Z" fill="white"/>
</g>
<defs>
<clipPath id="clip0_26_175">
<rect width="26" height="32" fill="white"/>
</clipPath>
</defs>
</svg>
