<svg xmlns="http://www.w3.org/2000/svg" viewBox="0 0 18 18"><path fill="currentColor" d="M7.64 0v2.083h1.389V0h-1.39zM2.933 1.95l-.982.982 1.474 1.473.982-.982L2.934 1.95zm10.802 0l-1.473 1.473.982.982 1.473-1.473zm-5.4 1.522c-2.682.005-4.855 2.178-4.862 4.86.005 2.683 2.179 4.857 4.862 4.863 2.682-.007 4.855-2.18 4.86-4.862-.006-2.682-2.178-4.854-4.86-4.861zM0 7.638v1.39h2.083v-1.39H.001zm14.583 0v1.39h2.084v-1.39zM3.425 12.261l-1.474 1.472.982.982 1.473-1.473-.982-.982zm9.82 0l-.982.982 1.473 1.473.982-.982zM7.64 14.583v2.083h1.389v-2.083h-1.39z"/></svg>
